HIERARCHY
ROOT hip
{
	OFFSET 0.000000 103.560692 0.219151
	CHANNELS 6 Xposition Yposition Zposition Zrotation Xrotation Yrotation
	JOINT pelvis
	{
		OFFSET 0.000000 1.955040 1.591925
		CHANNELS 3 Zrotation Xrotation Yrotation
		JOINT lThigh
		{
			OFFSET 8.341582 -7.629402 -0.646910
			CHANNELS 3 Zrotation Xrotation Yrotation
			JOINT lShin
			{
				OFFSET 2.185763 -45.093132 -0.705710
				CHANNELS 3 Zrotation Xrotation Yrotation
				JOINT lFoot
				{
					OFFSET 0.730976 -46.379768 -2.264282
					CHANNELS 3 Zrotation Xrotation Yrotation
					JOINT lToe
					{
						OFFSET 2.797621 -4.200020 10.742415
						CHANNELS 3 Zrotation Xrotation Yrotation
						JOINT lBigToe
						{
							OFFSET -2.433708 -0.269072 1.841711
							CHANNELS 3 Zrotation Xrotation Yrotation
							End Site
							{
								OFFSET -10.527346 -33.657166 -1.340707
							}
						}
					}
				}
			}
		}
		JOINT rThigh
		{
			OFFSET -8.341582 -7.629402 -0.646910
			CHANNELS 3 Zrotation Xrotation Yrotation
			JOINT rShin
			{
				OFFSET -2.185763 -45.093132 -0.705710
				CHANNELS 3 Zrotation Xrotation Yrotation
				JOINT rFoot
				{
					OFFSET -0.730976 -46.379768 -2.264282
					CHANNELS 3 Zrotation Xrotation Yrotation
					JOINT rToe
					{
						OFFSET -2.797621 -4.200019 10.742415
						CHANNELS 3 Zrotation Xrotation Yrotation
						JOINT rBigToe
						{
							OFFSET 2.433708 -0.269072 1.841711
							CHANNELS 3 Zrotation Xrotation Yrotation
							End Site
							{
								OFFSET 0.000000 24.298409 -0.425647
							}
						}
					}
				}
			}
		}
	}
	JOINT abdomen
	{
		OFFSET 0.000000 1.841293 -3.551421
		CHANNELS 3 Zrotation Xrotation Yrotation
		JOINT abdomen2
		{
			OFFSET 0.000000 5.439911 3.419600
			CHANNELS 3 Zrotation Xrotation Yrotation
			JOINT chest
			{
				OFFSET 0.000000 14.715073 -2.918270
				CHANNELS 3 Zrotation Xrotation Yrotation
				JOINT neck
				{
					OFFSET 0.000000 26.294655 -1.248052
					CHANNELS 3 Zrotation Xrotation Yrotation
					JOINT head
					{
						OFFSET 0.000000 8.807068 1.063695
						CHANNELS 3 Zrotation Xrotation Yrotation
						JOINT rEye
						{
							OFFSET -3.030866 6.632080 7.702687
							CHANNELS 3 Zrotation Xrotation Yrotation
							End Site
							{
								OFFSET 2.969555 -11.022598 8.626689
							}
						}
						JOINT lEye
						{
							OFFSET 3.030866 6.632080 7.702687
							CHANNELS 3 Zrotation Xrotation Yrotation
							End Site
							{
								OFFSET 0.000000 -15.881760 10.104412
							}
						}
						JOINT upperJaw
						{
							OFFSET 0.000000 1.922699 2.891887
							CHANNELS 3 Zrotation Xrotation Yrotation
							End Site
							{
								OFFSET 0.000000 -19.386169 10.230839
							}
						}
						JOINT lowerJaw
						{
							OFFSET 0.000000 1.857620 2.686640
							CHANNELS 3 Zrotation Xrotation Yrotation
							JOINT tongueBase
							{
								OFFSET 0.000000 -3.019135 2.746916
								CHANNELS 3 Zrotation Xrotation Yrotation
								JOINT tongue01
								{
									OFFSET 0.000000 0.664124 0.223355
									CHANNELS 3 Zrotation Xrotation Yrotation
									JOINT tongue02
									{
										OFFSET 0.000000 0.339737 0.715627
										CHANNELS 3 Zrotation Xrotation Yrotation
										JOINT tongue03
										{
											OFFSET 0.000000 0.123444 0.730634
											CHANNELS 3 Zrotation Xrotation Yrotation
											JOINT tongue04
											{
												OFFSET 0.000000 0.017212 0.737415
												CHANNELS 3 Zrotation Xrotation Yrotation
												JOINT tongue05
												{
													OFFSET 0.000000 -0.021011 0.632440
													CHANNELS 3 Zrotation Xrotation Yrotation
													JOINT tongueTip
													{
														OFFSET 0.000000 -0.014404 0.601796
														CHANNELS 3 Zrotation Xrotation Yrotation
														End Site
														{
															OFFSET -14.139406 -2.625778 0.472826
														}
													}
												}
											}
										}
									}
								}
							}
						}
					}
				}
				JOINT rCollar
				{
					OFFSET -2.109295 21.452370 3.768136
					CHANNELS 3 Zrotation Xrotation Yrotation
					JOINT rShldr
					{
						OFFSET -11.491621 -2.568573 -4.940255
						CHANNELS 3 Zrotation Xrotation Yrotation
						JOINT rForeArm
						{
							OFFSET -28.789030 -0.213806 2.098380
							CHANNELS 3 Zrotation Xrotation Yrotation
							JOINT rHand
							{
								OFFSET -22.260895 -0.869583 10.391586
								CHANNELS 3 Zrotation Xrotation Yrotation
								JOINT rThumb1
								{
									OFFSET -0.628075 0.137405 2.362409
									CHANNELS 3 Zrotation Xrotation Yrotation
									JOINT rThumb2
									{
										OFFSET 0.085205 -0.600235 3.826079
										CHANNELS 3 Zrotation Xrotation Yrotation
										JOINT rThumb3
										{
											OFFSET -1.255478 -0.879211 2.439162
											CHANNELS 3 Zrotation Xrotation Yrotation
											End Site
											{
												OFFSET -2.963715 0.538574 4.059553
											}
										}
									}
								}
								JOINT rCarpal1
								{
									OFFSET -0.855530 1.026047 1.621985
									CHANNELS 3 Zrotation Xrotation Yrotation
									JOINT rIndex1
									{
										OFFSET -3.951324 0.390884 3.873290
										CHANNELS 3 Zrotation Xrotation Yrotation
										JOINT rIndex2
										{
											OFFSET -3.071884 -1.259598 2.506104
											CHANNELS 3 Zrotation Xrotation Yrotation
											JOINT rIndex3
											{
												OFFSET -1.394112 -1.446640 1.203302
												CHANNELS 3 Zrotation Xrotation Yrotation
												End Site
												{
													OFFSET -3.392448 -1.258026 0.533405
												}
											}
										}
									}
									JOINT rMid1
									{
										OFFSET -5.422974 0.107910 2.002650
										CHANNELS 3 Zrotation Xrotation Yrotation
										JOINT rMid2
										{
											OFFSET -3.599533 -1.323776 2.090647
											CHANNELS 3 Zrotation Xrotation Yrotation
											JOINT rMid3
											{
												OFFSET -1.360191 -1.598495 1.068055
												CHANNELS 3 Zrotation Xrotation Yrotation
												End Site
												{
													OFFSET -4.087769 -0.460876 0.069540
												}
											}
										}
									}
								}
								JOINT rCarpal2
								{
									OFFSET -1.942749 0.556229 -0.337217
									CHANNELS 3 Zrotation Xrotation Yrotation
									JOINT rRing1
									{
										OFFSET -4.762787 -0.121170 2.349089
										CHANNELS 3 Zrotation Xrotation Yrotation
										JOINT rRing2
										{
											OFFSET -3.380348 -1.337097 1.356700
											CHANNELS 3 Zrotation Xrotation Yrotation
											JOINT rRing3
											{
												OFFSET -1.430290 -1.499649 0.914224
												CHANNELS 3 Zrotation Xrotation Yrotation
												End Site
												{
													OFFSET -1.783272 -2.215851 -0.391895
												}
											}
										}
									}
									JOINT rPinky1
									{
										OFFSET -5.232559 -1.313721 0.336493
										CHANNELS 3 Zrotation Xrotation Yrotation
										JOINT rPinky2
										{
											OFFSET -2.217606 -1.389603 0.800693
											CHANNELS 3 Zrotation Xrotation Yrotation
											JOINT rPinky3
											{
												OFFSET -0.886887 -1.462280 0.774199
												CHANNELS 3 Zrotation Xrotation Yrotation
												End Site
												{
													OFFSET 14.139406 -2.625778 0.472826
												}
											}
										}
									}
								}
							}
						}
					}
				}
				JOINT lCollar
				{
					OFFSET 2.109295 21.452370 3.768136
					CHANNELS 3 Zrotation Xrotation Yrotation
					JOINT lShldr
					{
						OFFSET 11.491621 -2.568573 -4.940255
						CHANNELS 3 Zrotation Xrotation Yrotation
						JOINT lForeArm
						{
							OFFSET 28.789030 -0.213806 2.098380
							CHANNELS 3 Zrotation Xrotation Yrotation
							JOINT lHand
							{
								OFFSET 22.260895 -0.869583 10.391586
								CHANNELS 3 Zrotation Xrotation Yrotation
								JOINT lThumb1
								{
									OFFSET 0.628075 0.137405 2.362409
									CHANNELS 3 Zrotation Xrotation Yrotation
									JOINT lThumb2
									{
										OFFSET -0.085205 -0.600235 3.826079
										CHANNELS 3 Zrotation Xrotation Yrotation
										JOINT lThumb3
										{
											OFFSET 1.255478 -0.879211 2.439162
											CHANNELS 3 Zrotation Xrotation Yrotation
											End Site
											{
												OFFSET 2.963715 0.538574 4.059553
											}
										}
									}
								}
								JOINT lCarpal1
								{
									OFFSET 0.855530 1.026047 1.621985
									CHANNELS 3 Zrotation Xrotation Yrotation
									JOINT lIndex1
									{
										OFFSET 3.951324 0.390884 3.873290
										CHANNELS 3 Zrotation Xrotation Yrotation
										JOINT lIndex2
										{
											OFFSET 3.071884 -1.259598 2.506104
											CHANNELS 3 Zrotation Xrotation Yrotation
											JOINT lIndex3
											{
												OFFSET 1.394112 -1.446640 1.203302
												CHANNELS 3 Zrotation Xrotation Yrotation
												End Site
												{
													OFFSET 3.392448 -1.258026 0.533405
												}
											}
										}
									}
									JOINT lMid1
									{
										OFFSET 5.422974 0.107910 2.002650
										CHANNELS 3 Zrotation Xrotation Yrotation
										JOINT lMid2
										{
											OFFSET 3.599533 -1.323776 2.090647
											CHANNELS 3 Zrotation Xrotation Yrotation
											JOINT lMid3
											{
												OFFSET 1.360191 -1.598495 1.068055
												CHANNELS 3 Zrotation Xrotation Yrotation
												End Site
												{
													OFFSET 4.087769 -0.460876 0.069540
												}
											}
										}
									}
								}
								JOINT lCarpal2
								{
									OFFSET 1.942749 0.556229 -0.337217
									CHANNELS 3 Zrotation Xrotation Yrotation
									JOINT lRing1
									{
										OFFSET 4.762787 -0.121170 2.349089
										CHANNELS 3 Zrotation Xrotation Yrotation
										JOINT lRing2
										{
											OFFSET 3.380348 -1.337097 1.356700
											CHANNELS 3 Zrotation Xrotation Yrotation
											JOINT lRing3
											{
												OFFSET 1.430290 -1.499649 0.914224
												CHANNELS 3 Zrotation Xrotation Yrotation
												End Site
												{
													OFFSET 1.783272 -2.215851 -0.391895
												}
											}
										}
									}
									JOINT lPinky1
									{
										OFFSET 5.232559 -1.313721 0.336493
										CHANNELS 3 Zrotation Xrotation Yrotation
										JOINT lPinky2
										{
											OFFSET 2.217606 -1.389603 0.800693
											CHANNELS 3 Zrotation Xrotation Yrotation
											JOINT lPinky3
											{
												OFFSET 0.886887 -1.462280 0.774199
												CHANNELS 3 Zrotation Xrotation Yrotation
												End Site
												{
													OFFSET -10.295957 -17.050110 17.461308
												}
											}
										}
									}
								}
							}
						}
					}
				}
				JOINT rPectoral
				{
					OFFSET -6.358840 6.360771 6.369920
					CHANNELS 3 Zrotation Xrotation Yrotation
					End Site
					{
						OFFSET 10.295957 -17.050110 17.461308
					}
				}
				JOINT lPectoral
				{
					OFFSET 6.358840 6.360771 6.369920
					CHANNELS 3 Zrotation Xrotation Yrotation
					End Site
					{
						OFFSET 10.295957 -17.050110 17.461308
					}
				}
			}
		}
	}
}
MOTION
Frames:	5
Frame Time:	0.0333333
-4.511360 0.000000 5.644440 0.000000 0.000000 0.000000 0.000000 0.000000 0.000000 -3.438055 -5.612420 -0.226044 0.927564 6.650485 0.066986 0.504989 2.644909 -0.111595 0.000000 0.000000 0.000000 0.000000 0.000000 0.000000 3.139801 -4.856526 0.207674 -0.933211 5.281244 -0.042863 -0.502525 3.258280 0.123797 0.000000 0.000000 0.000000 0.000000 0.000000 0.000000 0.000000 0.000000 0.000000 -0.194076 -0.000752 -0.005539 -0.053536 -0.001130 -0.009274 0.000000 0.000000 0.000000 0.000000 0.000000 0.000000 0.000000 0.000000 0.000000 0.000000 0.000000 0.000000 0.000000 0.000000 0.000000 0.000000 0.000000 0.000000 0.000000 0.000000 0.000000 0.000000 0.000000 0.000000 0.000000 0.000000 0.000000 0.000000 0.000000 0.000000 0.000000 0.000000 0.000000 0.000000 0.000000 0.000000 0.000000 0.000000 0.000000 1.005026 -4.457774 26.158192 1.570027 -0.237958 -25.006372 -0.033440 0.085671 -3.967694 0.000000 0.000000 0.000000 -3.683647 7.568618 -37.263580 -0.521451 -4.065397 4.748854 0.000000 0.000000 0.000000 0.000000 0.000000 0.000000 2.932509 3.077809 -1.696276 -16.520334 -9.538442 -4.612900 0.000000 0.000000 0.000000 -3.674220 -0.286563 -4.611559 -18.025385 -7.769807 -5.343670 0.000000 0.000000 0.000000 0.000000 0.000000 0.000000 -2.143522 2.948137 -9.589356 -18.472721 -6.951544 -4.630789 0.000000 0.000000 0.000000 -15.680961 4.379838 -16.697607 -18.444633 -4.749706 -6.966295 0.000000 0.000000 0.000000 -1.005026 -4.457774 -26.158192 -1.570027 -0.237958 25.006372 0.033440 0.085671 3.967694 0.000000 0.000000 0.000000 3.683647 7.568618 37.263580 0.521451 -4.065397 -4.748854 0.000000 0.000000 0.000000 0.000000 0.000000 0.000000 -2.932506 3.077815 1.696297 16.520334 -9.538442 4.612900 0.000000 0.000000 0.000000 3.674220 -0.286563 4.611559 18.025385 -7.769807 5.343670 0.000000 0.000000 0.000000 0.000000 0.000000 0.000000 2.143522 2.948137 9.589356 18.472721 -6.951544 4.630789 0.000000 0.000000 0.000000 15.680961 4.379838 16.697607 18.444633 -4.749706 6.966295 0.000000 0.000000 0.000000 -0.838774 0.020650 2.461073 0.838774 0.020650 -2.461073 
-3.000070 -0.887802 4.769800 0.690785 1.141040 13.987829 0.000000 0.000000 0.000000 -0.975228 -15.916368 4.141608 0.794227 30.079102 0.525343 1.052370 -6.876589 2.501100 0.000000 0.000000 0.000000 0.000000 0.000000 0.000000 5.678591 -9.372491 -6.248271 -0.834269 25.151653 -0.341935 -2.232312 -8.017946 -10.329416 0.000000 0.000000 0.000000 0.000000 0.000000 0.000000 0.000000 0.000000 0.000000 2.181790 11.652397 1.365390 0.502787 -5.881148 0.479514 -12.592299 -8.054548 -4.720069 12.081597 10.343500 -5.158719 0.000000 0.000000 0.000000 0.000000 0.000000 0.000000 0.000000 0.000000 0.000000 0.000000 0.000000 0.000000 0.000000 0.000000 0.000000 0.000000 0.000000 0.000000 0.000000 0.000000 0.000000 0.000000 0.000000 0.000000 0.000000 0.000000 0.000000 0.000000 0.000000 0.000000 0.000000 0.000000 0.000000 1.005026 -4.457774 26.158192 70.292130 -21.031685 -14.555698 -3.201236 2.857369 21.550989 0.000000 0.000000 0.000000 -3.683647 7.568618 -37.263580 -0.521451 -4.065397 4.748854 0.000000 0.000000 0.000000 0.000000 0.000000 0.000000 2.932509 3.077809 -1.696276 -16.520334 -9.538442 -4.612900 0.000000 0.000000 0.000000 -3.674220 -0.286563 -4.611559 -18.025385 -7.769807 -5.343670 0.000000 0.000000 0.000000 -0.108829 9.366709 1.328380 -2.143522 2.948137 -9.589356 -18.472721 -6.951544 -4.630789 0.000000 0.000000 0.000000 -15.680961 4.379838 -16.697607 -18.444633 -4.749706 -6.966295 0.000000 0.000000 0.000000 -1.005026 -4.457774 -26.158192 -72.992897 -9.167667 12.453422 6.421547 3.777263 -32.906399 0.000000 0.000000 0.000000 3.683647 7.568618 37.263580 0.521451 -4.065397 -4.748854 0.000000 0.000000 0.000000 0.000000 0.000000 0.000000 -2.932506 3.077815 1.696297 16.520334 -9.538442 4.612900 0.000000 0.000000 0.000000 3.674220 -0.286563 4.611559 18.025385 -7.769807 5.343670 0.000000 0.000000 0.000000 0.036193 5.422049 -0.764325 2.143522 2.948137 9.589356 18.472721 -6.951544 4.630789 0.000000 0.000000 0.000000 15.680961 4.379838 16.697607 18.444633 -4.749706 6.966295 0.000000 0.000000 0.000000 -0.838774 0.020650 2.461073 0.838774 0.020650 -2.461073 
-2.896100 -0.772903 4.719010 0.415603 1.108355 16.357843 0.000000 0.000000 0.000000 0.319263 -17.285637 6.987151 0.778605 31.829754 0.548796 1.970769 -6.948709 7.036059 0.000000 0.000000 0.000000 0.000000 0.000000 0.000000 6.374846 -8.591686 -6.457461 -0.837176 23.906311 -0.313107 -1.760436 -7.423307 -10.400951 0.000000 0.000000 0.000000 0.000000 0.000000 0.000000 0.000000 0.000000 0.000000 2.749619 11.816098 1.540000 0.555795 -5.851870 0.557022 -12.113799 -7.890527 -4.317249 11.221297 10.234198 -4.483768 0.000000 0.000000 0.000000 0.000000 0.000000 0.000000 0.000000 0.000000 0.000000 0.000000 0.000000 0.000000 0.000000 0.000000 0.000000 0.000000 0.000000 0.000000 0.000000 0.000000 0.000000 0.000000 0.000000 0.000000 0.000000 0.000000 0.000000 0.000000 0.000000 0.000000 0.000000 0.000000 0.000000 1.005026 -4.457774 26.158192 70.093521 -21.109573 -14.990082 -3.060436 2.790294 20.944252 0.000000 0.000000 0.000000 -3.683647 7.568618 -37.263580 -0.521451 -4.065397 4.748854 0.000000 0.000000 0.000000 0.000000 0.000000 0.000000 2.932509 3.077809 -1.696276 -16.520334 -9.538442 -4.612900 0.000000 0.000000 0.000000 -3.674220 -0.286563 -4.611559 -18.025385 -7.769807 -5.343670 0.000000 0.000000 0.000000 -0.110781 9.449368 1.340320 -2.143522 2.948137 -9.589356 -18.472721 -6.951544 -4.630789 0.000000 0.000000 0.000000 -15.680961 4.379838 -16.697607 -18.444633 -4.749706 -6.966295 0.000000 0.000000 0.000000 -1.005026 -4.457774 -26.158192 -73.087021 -8.845975 12.251228 6.658044 3.806672 -33.618645 0.000000 0.000000 0.000000 3.683647 7.568618 37.263580 0.521451 -4.065397 -4.748854 0.000000 0.000000 0.000000 0.000000 0.000000 0.000000 -2.932506 3.077815 1.696297 16.520334 -9.538442 4.612900 0.000000 0.000000 0.000000 3.674220 -0.286563 4.611559 18.025385 -7.769807 5.343670 0.000000 0.000000 0.000000 0.035787 5.391650 -0.760014 2.143522 2.948137 9.589356 18.472721 -6.951544 4.630789 0.000000 0.000000 0.000000 15.680961 4.379838 16.697607 18.444633 -4.749706 6.966295 0.000000 0.000000 0.000000 -0.838774 0.020650 2.461073 0.838774 0.020650 -2.461073 
-2.708290 -0.678307 4.721240 0.447297 1.020142 18.671062 0.000000 0.000000 0.000000 1.443988 -18.230833 10.478970 0.772858 32.519264 0.569910 2.367660 -5.558659 10.091498 0.000000 0.000000 0.000000 0.000000 0.000000 0.000000 6.488868 -7.807195 -7.215367 -0.840379 22.957182 -0.286789 -1.497185 -7.281550 -10.452495 0.000000 0.000000 0.000000 0.000000 0.000000 0.000000 0.000000 0.000000 0.000000 2.739949 11.963597 1.657230 0.565432 -5.775198 0.594444 -12.380098 -7.693157 -4.406740 11.643799 10.275998 -4.617159 0.000000 0.000000 0.000000 0.000000 0.000000 0.000000 0.000000 0.000000 0.000000 0.000000 0.000000 0.000000 0.000000 0.000000 0.000000 0.000000 0.000000 0.000000 0.000000 0.000000 0.000000 0.000000 0.000000 0.000000 0.000000 0.000000 0.000000 0.000000 0.000000 0.000000 0.000000 0.000000 0.000000 1.005026 -4.457774 26.158192 69.933815 -21.482807 -15.198585 -2.979893 2.750670 20.590267 0.000000 0.000000 0.000000 -3.683647 7.568618 -37.263580 -0.521451 -4.065397 4.748854 0.000000 0.000000 0.000000 0.000000 0.000000 0.000000 2.932509 3.077809 -1.696276 -16.520334 -9.538442 -4.612900 0.000000 0.000000 0.000000 -3.674220 -0.286563 -4.611559 -18.025385 -7.769807 -5.343670 0.000000 0.000000 0.000000 -0.117597 9.732308 1.381230 -2.143522 2.948137 -9.589356 -18.472721 -6.951544 -4.630789 0.000000 0.000000 0.000000 -15.680961 4.379838 -16.697607 -18.444633 -4.749706 -6.966295 0.000000 0.000000 0.000000 -1.005026 -4.457774 -26.158192 -73.042801 -8.718123 12.557070 6.891836 3.831321 -34.312099 0.000000 0.000000 0.000000 3.683647 7.568618 37.263580 0.521451 -4.065397 -4.748854 0.000000 0.000000 0.000000 0.000000 0.000000 0.000000 -2.932506 3.077815 1.696297 16.520334 -9.538442 4.612900 0.000000 0.000000 0.000000 3.674220 -0.286563 4.611559 18.025385 -7.769807 5.343670 0.000000 0.000000 0.000000 0.034906 5.325109 -0.750580 2.143522 2.948137 9.589356 18.472721 -6.951544 4.630789 0.000000 0.000000 0.000000 15.680961 4.379838 16.697607 18.444633 -4.749706 6.966295 0.000000 0.000000 0.000000 -0.838774 0.020650 2.461073 0.838774 0.020650 -2.461073 
-2.384630 -0.556107 4.757260 0.605620 1.164036 21.128067 0.000000 0.000000 0.000000 1.995243 -18.741764 12.743375 0.780390 31.917109 0.551928 2.113211 -5.481271 10.223021 0.000000 0.000000 0.000000 0.000000 0.000000 0.000000 6.255581 -7.209680 -8.225818 -0.846247 22.104889 -0.264284 -1.213985 -7.063952 -10.507495 0.000000 0.000000 0.000000 0.000000 0.000000 0.000000 0.000000 0.000000 0.000000 2.387170 11.868698 1.680740 0.692042 -5.682379 0.595753 -12.512595 -7.660788 -4.383499 11.816599 10.388096 -4.534279 0.000000 0.000000 0.000000 0.000000 0.000000 0.000000 0.000000 0.000000 0.000000 0.000000 0.000000 0.000000 0.000000 0.000000 0.000000 0.000000 0.000000 0.000000 0.000000 0.000000 0.000000 0.000000 0.000000 0.000000 0.000000 0.000000 0.000000 0.000000 0.000000 0.000000 0.000000 0.000000 0.000000 1.005026 -4.457774 26.158192 69.774063 -21.909840 -15.378236 -2.916864 2.718973 20.309902 0.000000 0.000000 0.000000 -3.683647 7.568618 -37.263580 -0.521451 -4.065397 4.748854 0.000000 0.000000 0.000000 0.000000 0.000000 0.000000 2.932509 3.077809 -1.696276 -16.520334 -9.538442 -4.612900 0.000000 0.000000 0.000000 -3.674220 -0.286563 -4.611559 -18.025385 -7.769807 -5.343670 0.000000 0.000000 0.000000 -0.124807 10.022497 1.423259 -2.143522 2.948137 -9.589356 -18.472721 -6.951544 -4.630789 0.000000 0.000000 0.000000 -15.680961 4.379838 -16.697607 -18.444633 -4.749706 -6.966295 0.000000 0.000000 0.000000 -1.005026 -4.457774 -26.158192 -72.970512 -8.634799 12.967647 7.017046 3.842800 -34.679024 0.000000 0.000000 0.000000 3.683647 7.568618 37.263580 0.521451 -4.065397 -4.748854 0.000000 0.000000 0.000000 0.000000 0.000000 0.000000 -2.932506 3.077815 1.696297 16.520334 -9.538442 4.612900 0.000000 0.000000 0.000000 3.674220 -0.286563 4.611559 18.025385 -7.769807 5.343670 0.000000 0.000000 0.000000 0.026393 4.632569 -0.652502 2.143522 2.948137 9.589356 18.472721 -6.951544 4.630789 0.000000 0.000000 0.000000 15.680961 4.379838 16.697607 18.444633 -4.749706 6.966295 0.000000 0.000000 0.000000 -0.838774 0.020650 2.461073 0.838774 0.020650 -2.461073 
